#N canvas 6 61 413 451 10;
#X declare -path zexy -lib zexy;
#X obj 78 26 inlet;
#X obj 78 60 t b a b;
#X obj 189 24 inlet;
#X obj 92 239 stack;
#X msg 122 192 0;
#X msg 146 239 0;
#X obj 78 192 t b b;
#X obj 131 142 t a b;
#X obj 161 193 t b b;
#X msg 176 240 1;
#X obj 92 267 list prepend;
#X obj 92 295 route 0 1;
#X text 86 312 nop;
#X obj 121 321 t f f;
#X obj 236 195 + 1;
#X obj 121 361 outlet;
#X obj 10 205 outlet;
#X obj 187 298 print nrepeat-stack-underflow;
#X obj 187 328 print nrepeat-internal-error;
#X text 119 24 repeatee;
#X text 233 23 count;
#X text 8 225 repeated;
#X text 119 381 counter;
#X text 30 419 nrepeat.pd (GPL) <claude@mathr.co.uk>;
#X obj 227 386 declare -path zexy -lib zexy;
#X obj 128 103 gemrepeat;
#X connect 0 0 1 0;
#X connect 1 0 6 0;
#X connect 1 1 25 0;
#X connect 1 2 4 0;
#X connect 2 0 25 1;
#X connect 3 0 10 0;
#X connect 3 1 17 0;
#X connect 4 0 3 1;
#X connect 5 0 10 1;
#X connect 6 0 3 0;
#X connect 6 1 5 0;
#X connect 7 0 16 0;
#X connect 7 1 8 0;
#X connect 8 0 3 0;
#X connect 8 1 9 0;
#X connect 9 0 10 1;
#X connect 10 0 11 0;
#X connect 11 1 13 0;
#X connect 11 2 18 0;
#X connect 13 0 15 0;
#X connect 13 1 14 0;
#X connect 14 0 3 1;
#X connect 25 0 7 0;
